<?xml version="1.0" encoding="utf-8"?>
<!-- Generator: Adobe Illustrator 26.0.2, SVG Export Plug-In . SVG Version: 6.00 Build 0)  -->
<svg version="1.1" id="Слой_1" xmlns="http://www.w3.org/2000/svg" xmlns:xlink="http://www.w3.org/1999/xlink" x="0px" y="0px"
	 viewBox="0 0 400 400" style="enable-background:new 0 0 400 400;" xml:space="preserve">
<style type="text/css">
	.st0{fill:#00AEE0;}
	.st1{fill:#1F1E47;}
</style>
<path class="st0" d="M96.5,356.7c0,0,28-103.1-1.5-183.8C68.4,100.3,10.7,61.5,10.7,61.5s217.5-1,286,29.6
	c86.7,79.4,40.9,307.4,40.9,307.4L96.5,356.7z"/>
<path class="st1" d="M335.9,386c0,2.2-0.2,12.3,1.7,12.6c1.9,0.3,4.8-8.8,5.8-11.9c25.9-80.6,14.3-155.2,14.3-155.2
	c-10.2-65.7-18.6-119.8-58.6-155.4c-53.6-33.2-263-29.6-263-29.6l50.6-26c0,0,160.3-8.2,245.6,19.9
	c79.1,131.2,48.5,286.8,48.5,286.8s-1.7,9.7-3.6,23.3c0.5,2.6,6.5,3.6,6.1,2.4c-0.3-1.2,0.9-3.4,6-24c3.5-14.1,8.2-33.3,8.2-53.8
	c12.4-118-25.9-226-58.8-249.8S82.9,1.4,82.9,1.4S14.4,39,13.3,40.1S0.4,46.2,0,57c1.4,4.2,8.7,9.5,12.5,8.3S268.8,80,284.9,87.7
	C302,96,373.7,196.5,335.9,386z"/>
<path class="st1" d="M129.7,338c3.1,0.2,28.1-74.2,1-153.2c-21.2-61.9-65.5-100.6-68.4-98.6c-3,2.1,41.2,48.1,60.8,125.6
	C141.1,283.5,127,337.8,129.7,338z"/>
<path class="st1" d="M116.2,119.2c0,0,156.6,7.8,170.2,18c13.6,10.2,11.9-12.3-10.2-26.6S104.9,96.4,104.9,96.4L116.2,119.2z"/>
<path class="st1" d="M154.8,136.3c0,0-2.2-2,0,7.8c2.2,9.9,5.4,9.9,5.4,9.9l105.2,13.3c0,0,3.1-5.1,3.1-5.1c1-4.4-1.5-9.3-4.8-11.9
	c-4.2-3.4-3.2-1.6-11.2-3.1C243.5,143.9,154.8,136.3,154.8,136.3z"/>
<path class="st1" d="M159.9,267.8c3,5.9,10.9,7.1,11.6,7.1c11.8,1.5,21.5-10.4,25.5-15.3c13.6-16.7,12-35.7,11.6-40.9
	c-0.6-6.7-1.3-14.2-6.8-17.4c-4.5-2.5-10.6-1.4-14.6,1.4c-5.1,3.5-4.7,8-8.9,18.4c-4.4,10.8-6.4,9.7-12.9,23.8
	C157.4,262,159.1,266.2,159.9,267.8z"/>
<path class="st1" d="M267.1,233.4c0.4,4.7,3,32,24.5,47c9.5,6.6,15.3,5.7,16.7,5.4c4.6-0.8,9.8-4,11.9-8.9
	c2.7-6.3-1.8-10.8-9.2-28.6c-6.3-15.1-6.7-20.7-14-31c-5.8-8.3-9.4-10.2-12.6-10.6c-7.7-0.9-13.6,6.7-14,7.1
	C268.5,216.6,266,221.4,267.1,233.4z"/>
<path class="st1" d="M189.4,321.1c0.4,1.6,3,10.4,8.5,11.2c5,0.8,10.5-5.3,12.6-10.6c1.5-3.7,0.3-4.9,2-7.5
	c3.2-4.9,10.1-5.5,13.3-5.8c2.9-0.3,10.3-0.9,16.3,3.7c5,3.8,6.7,9.5,8.2,14.3c2.3,7.4,0.8,10,3.7,13.3c2.8,3.2,8.1,5.2,12.3,3.7
	c6.4-2.2,7.8-11.3,8.5-15.7c1.9-12.1-2.9-22.1-4.8-25.5c-6.1-11.3-19.1-23.1-36.8-24.5c-13.4-1-29.3,3.9-38.1,16.3
	C194.1,295.8,185.6,308,189.4,321.1z"/>
</svg>
